<svg width="3em" height="3em" viewBox="0 0 185 48" fill="none" xmlns="http://www.w3.org/2000/svg">
<path d="M0 38.804V7.78334C0 3.51519 3.43595 0.0493872 7.69325 0L40.436 0.00227472C44.374 0.107143 47.583 3.13565 47.9709 6.99602V10.3338C45.9364 11.6902 44.7127 12.4348 43.4646 13.1943C41.775 14.2225 40.0404 15.278 36.1888 17.9154C34.9633 18.7585 32.8819 20.8214 32.1327 22.1211C30.7451 24.5406 29.2743 26.8611 27.7202 29.0829C25.7088 31.9755 22.0623 33.4619 18.4491 33.4152C16.0758 33.3841 13.7524 33.403 11.479 33.4719C9.28536 33.567 7.159 34.2582 5.32825 35.4714C3.5666 36.6078 1.79162 37.7209 0 38.804Z" fill="white"/>
<path d="M47.9709 13.7V41.0034C47.5761 44.9326 44.2587 48 40.2248 48H7.78544C4.12342 48 1.05193 45.4722 0.221336 42.0666C0.595916 41.914 0.975048 41.7603 1.35658 41.6056C2.82919 41.0087 4.33786 40.3972 5.76117 39.7741C6.39877 39.4909 7.05664 39.2559 7.72929 39.0709C9.19972 38.6625 10.7326 38.5281 12.2516 38.6743C14.8847 38.9543 17.571 39.302 20.3106 39.7174C23.9738 40.2773 27.89 38.2744 30.3011 35.755C31.39 34.6186 32.4557 32.2425 33.498 29.833C33.8011 29.0965 34.2906 27.9434 34.88 26.6937C35.0765 26.2672 35.273 25.8572 35.4661 25.4773C36.3253 23.7577 37.2977 22.0614 38.1669 21.225C40.3115 19.0755 47.9709 13.7 47.9709 13.7Z" fill="white"/>
<path d="M158.34 46.331C161.056 47.4437 164.127 48 167.555 48C171.071 48 174.121 47.3547 176.703 46.064C179.285 44.7733 181.243 43.0376 182.579 40.8567C183.959 38.6759 184.649 36.2503 184.649 33.58C184.649 30.7761 183.959 28.484 182.579 26.7038C181.199 24.9235 179.552 23.5661 177.638 22.6314C175.768 21.6968 173.32 20.7177 170.292 19.694C167.265 18.7149 165.04 17.8025 163.615 16.9569C162.191 16.1113 161.478 14.9318 161.478 13.4186C161.478 12.0389 161.901 10.993 162.747 10.2809C163.593 9.52434 164.706 9.14603 166.086 9.14603C167.688 9.14603 169.002 9.5911 170.025 10.4812C171.049 11.3268 171.606 12.5063 171.695 14.0195H184.048C183.825 9.61335 182.134 6.18637 178.973 3.73852C175.812 1.24617 171.65 0 166.486 0C161.412 0 157.294 1.24617 154.133 3.73852C150.973 6.18637 149.393 9.5911 149.393 13.9527C149.393 16.8901 150.083 19.2712 151.463 21.096C152.843 22.9207 154.49 24.3004 156.404 25.235C158.318 26.1697 160.788 27.1043 163.816 28.0389C165.908 28.662 167.51 29.2184 168.623 29.7079C169.781 30.1975 170.738 30.8206 171.494 31.5772C172.296 32.3338 172.696 33.2907 172.696 34.4478C172.696 35.8275 172.207 36.9179 171.227 37.7191C170.248 38.4757 168.913 38.854 167.221 38.854C165.574 38.854 164.238 38.4089 163.215 37.5188C162.191 36.5841 161.59 35.249 161.412 33.5132H149.259C149.348 36.5841 150.194 39.21 151.796 41.3908C153.443 43.5716 155.625 45.2184 158.34 46.331Z" fill="white"/>
<path d="M65.9745 24.0334C65.9745 19.4047 66.9761 15.2879 68.9793 11.6829C70.9825 8.03338 73.7647 5.20723 77.3259 3.20445C80.9316 1.15716 85.0048 0.133517 89.5453 0.133517C95.1097 0.133517 99.8729 1.60222 103.835 4.53964C107.797 7.47705 110.445 11.4826 111.781 16.5563H99.2274C98.2926 14.5981 96.9571 13.1071 95.221 12.0834C93.5294 11.0598 91.593 10.548 89.4118 10.548C85.8951 10.548 83.0461 11.7719 80.8648 14.2197C78.6836 16.6676 77.593 19.9388 77.593 24.0334C77.593 28.128 78.6836 31.3992 80.8648 33.847C83.0461 36.2949 85.8951 37.5188 89.4118 37.5188C91.593 37.5188 93.5294 37.007 95.221 35.9833C96.9571 34.9597 98.2926 33.4687 99.2274 31.5104H111.781C110.445 36.5841 107.797 40.5897 103.835 43.5271C99.8729 46.42 95.1097 47.8665 89.5453 47.8665C85.0048 47.8665 80.9316 46.8651 77.3259 44.8623C73.7647 42.815 70.9825 39.9889 68.9793 36.3839C66.9761 32.7789 65.9745 28.662 65.9745 24.0334Z" fill="white"/>
<path d="M130.191 38.7204H145.148V47.5327H118.773V0.667593H130.191V38.7204Z" fill="white"/>
</svg>
