<svg width="1.2rem" height="1.2rem" viewBox="0 0 54 54" fill="none" xmlns="http://www.w3.org/2000/svg">
<path d="M39.4272 0.333496C48.4939 0.333496 53.6672 5.4535 53.6672 14.5468V39.4535C53.6672 48.4935 48.5205 53.6668 39.4539 53.6668H14.5472C5.45386 53.6668 0.333862 48.4935 0.333862 39.4535V14.5468C0.333862 5.4535 5.45386 0.333496 14.5472 0.333496H39.4272ZM26.9739 15.0268C25.7472 15.0268 24.7605 16.0135 24.7605 17.2402V24.7602H17.2139C16.6272 24.7602 16.0672 25.0002 15.6405 25.4002C15.2405 25.8268 15.0005 26.3842 15.0005 26.9735C15.0005 28.2002 15.9872 29.1868 17.2139 29.2135H24.7605V36.7602C24.7605 37.9868 25.7472 38.9735 26.9739 38.9735C28.2005 38.9735 29.1872 37.9868 29.1872 36.7602V29.2135H36.7605C37.9872 29.1868 38.9739 28.2002 38.9739 26.9735C38.9739 25.7468 37.9872 24.7602 36.7605 24.7602H29.1872V17.2402C29.1872 16.0135 28.2005 15.0268 26.9739 15.0268Z" fill="white"/>
</svg>
