<svg width="1.6rem" height="1.55rem" viewBox="0 0 68 60" fill="none" xmlns="http://www.w3.org/2000/svg">
<path d="M49.0519 0C60.5482 0 67.3334 6.61531 67.3334 17.9393H53.2297V18.0549C46.6841 18.0549 41.3778 23.2283 41.3778 29.61C41.3778 35.9917 46.6841 41.1651 53.2297 41.1651H67.3334V42.2051C67.3334 53.3847 60.5482 60 49.0519 60H18.9482C7.45187 60 0.666687 53.3847 0.666687 42.2051V17.7949C0.666687 6.61531 7.45187 0 18.9482 0H49.0519ZM64.8445 22.908C66.2191 22.908 67.3334 23.9945 67.3334 25.3346V33.7699C67.3174 35.1035 66.2124 36.1808 64.8445 36.1964H53.4963C50.1826 36.2399 47.285 34.0279 46.5334 30.8811C46.157 28.9276 46.6854 26.9119 47.9769 25.3741C49.2685 23.8362 51.1912 22.9336 53.2297 22.908H64.8445ZM54.8297 26.8079H53.7334C53.0603 26.8002 52.4121 27.0555 51.9333 27.5168C51.4546 27.9781 51.1852 28.6071 51.1852 29.2634C51.1851 30.6402 52.3213 31.7608 53.7334 31.7766H54.8297C56.237 31.7766 57.3778 30.6643 57.3778 29.2922C57.3778 27.9202 56.237 26.8079 54.8297 26.8079ZM35.2741 12.9706H16.4593C15.0635 12.9705 13.9274 14.0653 13.9111 15.4261C13.9111 16.8029 15.0472 17.9235 16.4593 17.9393H35.2741C36.6814 17.9393 37.8222 16.8271 37.8222 15.455C37.8222 14.0829 36.6814 12.9706 35.2741 12.9706Z" fill="white"/>
</svg>
